<?xml version="1.0" standalone="no"?>
<!DOCTYPE svg PUBLIC "-//W3C//DTD SVG 1.1//EN" "http://www.w3.org/Graphics/SVG/1.1/DTD/svg11.dtd" >
<svg xmlns="http://www.w3.org/2000/svg">
<metadata></metadata>
<defs>
<font id="austinitalic" horiz-adv-x="1064" >
<font-face units-per-em="2048" ascent="1638" descent="-410" />
<missing-glyph horiz-adv-x="512" />
<glyph horiz-adv-x="0" />
<glyph unicode="&#xd;" horiz-adv-x="512" />
<glyph unicode=" "  horiz-adv-x="512" />
<glyph unicode="&#x09;" horiz-adv-x="512" />
<glyph unicode="&#xa0;" horiz-adv-x="512" />
<glyph unicode="!" horiz-adv-x="409" d="M53 92q0 45 33 79t76 34q45 0 77.5 -32t32.5 -77q0 -43 -34.5 -76.5t-79.5 -33.5q-41 0 -73 31.5t-32 74.5zM221 403q31 250 148 771q39 170 51 188t26 18q27 0 61 -35.5t34 -64.5q0 -76 -185 -594l-100 -283h-35z" />
<glyph unicode="&#x22;" horiz-adv-x="860" d="M295 862q25 326 47 418q8 35 41 59.5t72 24.5q63 0 63 -59q0 -52 -180 -443h-43zM662 862q25 326 47 418q8 35 40.5 59.5t69.5 24.5q66 0 66 -59q0 -52 -180 -443h-43z" />
<glyph unicode="#" horiz-adv-x="1024" d="M4 436l23 111h215l110 293h-196l22 110h215l164 434h125l-164 -434h266l164 434h125l-164 -434h197l-23 -110h-215l-110 -293h194l-22 -111h-215l-162 -436h-127l164 436h-266l-162 -436h-127l164 436h-195zM367 547h266l110 293h-266z" />
<glyph unicode="$" d="M170 86v168h100q27 -162 152 -197l166 594q-143 164 -193.5 253t-50.5 179q0 125 111.5 211t275.5 86h57l37 133h52l-39 -139q67 0 219 -55v-166h-84q-4 63 -46 109.5t-104 56.5l-139 -504q160 -180 186 -219q106 -150 107 -270q0 -150 -116 -245t-296 -95q-51 0 -110 10 l-74 -266h-49l76 274q-139 35 -238 82zM459 1165q0 -127 186 -307l131 473q-51 6 -71 6q-100 0 -173 -51t-73 -121zM469 41q59 -14 94 -14q115 0 203 67.5t88 155.5q0 78 -42 144.5t-185 213.5z" />
<glyph unicode="%" horiz-adv-x="1714" d="M414 778q0 266 155 457q113 139 267 139q98 0 154.5 -60.5t56.5 -164.5q0 -207 -107 -395q-121 -215 -315 -215q-211 0 -211 239zM518 721q0 -133 117 -133q76 0 127 56t98 192q84 238 84 362q0 127 -117 127q-84 0 -137 -59.5t-100 -208.5q-72 -223 -72 -336zM623 23 l817 1357l57 -37l-819 -1357zM1075 231q0 266 156 457q112 139 266 139q98 0 154.5 -60t56.5 -165q0 -207 -106 -395q-121 -215 -316 -215q-211 0 -211 239zM1180 174q0 -133 116 -133q76 0 127.5 56.5t98.5 191.5q84 238 84 362q0 127 -117 127q-84 0 -137.5 -59.5 t-100.5 -208.5q-72 -223 -71 -336z" />
<glyph unicode="&#x26;" horiz-adv-x="1484" d="M96 330q0 178 195 332q90 72 282 172q-6 68 -6 90q0 172 115 314t254 142q78 0 130 -46t52 -113q0 -219 -375 -371q41 -184 118 -375.5t143 -267.5q221 168 221 368q0 113 -135 142v47h426l-3 -47l-210 -8q27 -55 26 -101q0 -158 -155 -319q-18 -20 -138 -125 q82 -84 174 -84q80 0 172 47l17 -29q-164 -109 -305 -108q-111 0 -205 80q-174 -84 -381 -84q-170 0 -291 101t-121 243zM276 348q0 -125 94.5 -206t239.5 -81q113 0 234 56q-143 213 -258 647q-309 -172 -310 -416zM702 1090q0 -76 27 -191q16 8 43 21q100 45 162.5 126.5 t62.5 163.5q0 49 -34.5 84t-85.5 35q-72 0 -123.5 -69.5t-51.5 -169.5z" />
<glyph unicode="(" horiz-adv-x="468" d="M135 371q0 354 148.5 654t423.5 505l26 -31q-125 -123 -198.5 -234.5t-143.5 -287.5q-147 -371 -147 -744q-1 -210 67 -462l-32 -15q-143 287 -144 615z" />
<glyph unicode=")" horiz-adv-x="468" d="M-94 -213q125 123 198.5 234.5t143.5 287.5q147 371 147 742q1 211 -67 465l32 14q143 -289 144 -615q0 -354 -148.5 -655t-421.5 -504z" />
<glyph unicode="*" d="M336 1149q0 33 22.5 56.5t53.5 23.5q39 0 116 -82q64 -68 127 -111l-16 -28q-86 33 -194.5 55t-108.5 86zM377 791q0 41 41 69q12 8 78.5 40t142.5 85l23 -22q-57 -72 -115 -172q-43 -78 -94 -78q-29 0 -52.5 23.5t-23.5 54.5zM666 1290q-4 90 75 90q78 0 78 -75 q0 -29 -45 -113q-39 -72 -65 -156l-31 6v58q0 27 -4 63q-4 47 -6 84zM682 954l29 15q57 -84 127 -162q49 -55 49 -92q0 -29 -22.5 -51.5t-55.5 -22.5q-43 0 -66 39q-12 23 -23 108.5t-38 165.5zM721 1018q82 23 192 72q51 23 78 22q76 0 76 -78q0 -76 -86 -76 q-23 0 -89.5 12.5t-166.5 16.5z" />
<glyph unicode="+" horiz-adv-x="1382" d="M176 451v135h449v450h135v-450h448v-135h-448v-451h-135v451h-449z" />
<glyph unicode="," horiz-adv-x="329" d="M-111 -248q137 115 138 213q0 23 -27 72q-14 27 -14 57q0 90 88 90q45 0 73.5 -32.5t28.5 -81.5q0 -86 -72.5 -180t-195.5 -166z" />
<glyph unicode="-" horiz-adv-x="583" d="M147 395v137h410v-137h-410z" />
<glyph unicode="." horiz-adv-x="409" d="M53 92q0 45 33 79t76 34q45 0 77.5 -32t32.5 -77q0 -43 -34.5 -76.5t-79.5 -33.5q-41 0 -73 31.5t-32 74.5z" />
<glyph unicode="/" horiz-adv-x="321" d="M-203 -223l752 1724h115l-758 -1724h-109z" />
<glyph unicode="0" d="M164 381q0 201 67.5 410.5t178.5 357.5q173 231 411 231q152 0 239 -99t87 -273q0 -342 -168 -662q-190 -360 -496 -360q-150 0 -237 100q-82 92 -82 295zM307 285q0 -238 197 -238q123 0 208 98.5t160 327.5q135 412 136 621q0 104 -53.5 164.5t-143.5 60.5 q-180 0 -291 -203q-70 -129 -141.5 -407.5t-71.5 -423.5z" />
<glyph unicode="1" d="M193 0l2 47q139 4 186 44t90 198l221 801q8 29 8 47q0 41 -41 41q-25 0 -112 -31l-17 41q33 16 37 16q92 41 134 66.5t145 107.5h104l-323 -1165q-20 -74 -21 -98q0 -35 31 -49.5t113 -18.5v-45h-175q-33 0 -71 2h-39q-23 0 -107 -2h-63t-102 -2z" />
<glyph unicode="2" d="M111 0v51q43 49 69 76q45 49 139 141q352 346 457 492q115 162 115 272q0 92 -62.5 156.5t-150.5 64.5q-127 0 -295 -139l-51 47q100 119 189 169t202 50q147 0 244.5 -91t97.5 -228q0 -184 -186 -369q-35 -35 -332 -299q-199 -174 -258 -250h495q66 0 93 9q39 12 71 59 h43l-86 -211q-147 4 -336 4q-129 0 -458 -4z" />
<glyph unicode="3" d="M102 76l2 119h95q78 -137 262 -138q152 0 253 96.5t101 239.5q0 123 -89 201t-245 94l13 76q190 45 300.5 131t110.5 188q0 78 -58.5 131.5t-146.5 53.5q-78 0 -196 -47l-10 -4l-39 57q152 106 309 106q125 0 213 -74.5t88 -183.5q0 -129 -121 -223q-57 -45 -166 -108 l-4 -13q109 -76 155 -151.5t46 -184.5q0 -205 -178 -340q-156 -117 -351 -116q-158 0 -344 90z" />
<glyph unicode="4" d="M133 377v131l789 827l12 43h178l-240 -858h129q31 0 41 21h43l-45 -164h-206l-105 -377h-178l104 377h-522zM246 520h450l191 690z" />
<glyph unicode="5" d="M119 176h96q82 -135 240 -135q152 0 263 126t111 298q0 156 -106.5 242t-294.5 86q-16 0 -106 -5l239 578h418q49 0 68 12h43l-43 -155h-482l-135 -330q88 27 145 27q158 0 270.5 -118t112.5 -286q0 -213 -148 -371.5t-388 -158.5q-166 0 -301 75z" />
<glyph unicode="6" d="M162 399q0 170 72.5 350.5t191.5 309.5q283 307 709 313v-49q-281 -55 -430 -162q-217 -154 -275 -336l135 56q49 20 99 20q174 0 274 -98t100 -268q0 -197 -123 -361q-141 -188 -370 -188q-174 0 -278.5 112.5t-104.5 300.5zM313 391q0 -162 64.5 -256t175.5 -94 q137 0 225 121q111 154 111 342q0 137 -75 220t-202 83q-104 0 -223 -78q-76 -170 -76 -338z" />
<glyph unicode="7" d="M358 1122l131 244l400 -4q207 0 385 4q-37 -70 -60 -109l-182 -321q-147 -260 -295 -553q-147 -299 -147 -336q0 -23 35 -35l-17 -32q-82 18 -198 20q186 373 495 891q66 111 195 332h-492q-76 0 -106.5 -14.5t-102.5 -86.5h-41z" />
<glyph unicode="8" d="M133 293q0 96 58.5 195.5t158.5 170.5q66 47 182 97q-160 160 -159 305q0 143 105.5 231t275.5 88q152 0 248 -70.5t96 -181.5q0 -221 -326 -364q209 -203 209 -381q0 -172 -129 -284.5t-326 -112.5q-168 0 -280.5 88t-112.5 219zM266 317q0 -115 85 -193.5t212 -78.5 q117 0 202 76t85 180q0 200 -258 399l-47 -16q-125 -43 -202 -146.5t-77 -220.5zM500 1133q0 -160 213 -320q268 90 268 293q0 90 -76 151.5t-184 61.5q-100 0 -160.5 -51t-60.5 -135z" />
<glyph unicode="9" d="M180 -6v51q244 37 414 158q102 72 181 171t102 179l-156 -70q-25 -14 -94 -14q-164 0 -262.5 100.5t-98.5 268.5q0 254 185 426q125 117 305 116q172 0 275.5 -112.5t103.5 -298.5q0 -145 -55.5 -308t-143.5 -278q-186 -242 -471 -342q-119 -41 -285 -47zM412 858 q0 -131 75.5 -213t194.5 -82q106 0 233 80q72 170 72 328q0 164 -64.5 259t-177.5 95q-137 0 -223 -115q-111 -150 -110 -352z" />
<glyph unicode=":" horiz-adv-x="454" d="M98 92q0 45 33 79t76 34q45 0 77.5 -32t32.5 -77q0 -43 -34.5 -76.5t-79.5 -33.5q-41 0 -73 31.5t-32 74.5zM207 776q0 45 32.5 79t75.5 34q45 0 78 -32t33 -77q0 -43 -35 -76.5t-80 -33.5q-41 0 -72.5 31.5t-31.5 74.5z" />
<glyph unicode=";" horiz-adv-x="401" d="M-37 -248q137 115 137 213q0 23 -26 72q-14 27 -15 57q0 90 88 90q45 0 74 -32.5t29 -81.5q0 -86 -72.5 -180t-195.5 -166zM141 776q0 45 33 79t76 34q45 0 77.5 -32t32.5 -77q0 -43 -34.5 -76.5t-79.5 -33.5q-41 0 -73 31.5t-32 74.5z" />
<glyph unicode="&#x3c;" horiz-adv-x="1382" d="M172 451v135l1040 471v-148l-860 -391l860 -391v-147z" />
<glyph unicode="=" horiz-adv-x="1382" d="M176 246v135h1032v-135h-1032zM176 655v136h1032v-136h-1032z" />
<glyph unicode="&#x3e;" horiz-adv-x="1382" d="M172 -20v147l860 391l-860 391v148l1040 -471v-135z" />
<glyph unicode="?" horiz-adv-x="745" d="M178 92q0 45 33 79t76 34q45 0 77.5 -32t32.5 -77q0 -43 -34.5 -76.5t-79.5 -33.5q-41 0 -73 31.5t-32 74.5zM309 403q4 55 41 170q8 29 45 35q150 25 244 119q59 59 98 159.5t39 194.5q0 96 -59.5 164t-143.5 68q-94 0 -167 -119l-87 18l29 146q96 23 160 22 q174 0 280.5 -109.5t106.5 -287.5q0 -184 -98.5 -296t-282.5 -134q-78 -10 -108.5 -37t-57.5 -113h-39z" />
<glyph unicode="@" horiz-adv-x="1884" d="M242 653q0 297 217 504t526 207q281 0 473.5 -172t192.5 -422q0 -197 -113 -342t-264 -145q-72 0 -123 41t-59 106q-117 -145 -252 -145q-78 0 -130.5 65.5t-52.5 161.5q0 233 168 410q98 102 232 102q57 0 90 -27q24 -20 55 -77l21 75h141l-133 -516q-6 -25 -6 -41 q0 -88 75 -88q80 0 142 64q127 131 127 338q0 223 -173 385.5t-411 162.5q-250 0 -411.5 -186t-161.5 -473q0 -262 169 -430t431 -168q182 0 393 96l25 -59q-250 -117 -443 -117q-313 0 -529 199.5t-216 490.5zM803 543q0 -172 121 -172q86 0 159.5 132t83.5 304 q6 121 -82 127q-84 6 -178 -103q-104 -121 -104 -288z" />
<glyph unicode="A" horiz-adv-x="1259" d="M-55 0v47q92 4 174 143l647 1096l-6 80h182l90 -1184q6 -80 29.5 -99.5t128.5 -35.5v-47l-252 4q-53 0 -229 -4v47q84 10 110.5 28.5t26.5 67.5v25l-21 258h-477l-162 -272q-18 -31 -18 -52q0 -31 41 -43q4 -2 65 -12v-47q-94 4 -172 4t-157 -4zM393 508h428l-47 647z " />
<glyph unicode="B" horiz-adv-x="1259" d="M-2 0v47l70 8q80 10 109.5 47t66.5 172l225 820q31 113 31 149q0 59 -90 70l-58 6v47l152 -2q23 0 55 -2h39q49 0 149.5 4t149.5 4q174 0 266 -43q72 -33 115 -100.5t43 -143.5q0 -156 -143 -262q-70 -51 -213 -106q278 -47 278 -283q0 -225 -221 -346q-164 -90 -447 -90 q-25 0 -165 4l-162 4q-27 0 -250 -4zM379 78q88 -12 172 -12q270 0 385 104t115 268q0 230 -315 230h-21l-76 -2h-96zM561 733l86 2q193 4 311 56q82 35 131.5 111.5t49.5 170.5q0 221 -275 221q-35 0 -149 -6z" />
<glyph unicode="C" horiz-adv-x="1255" d="M172 492q0 420 289 675q248 219 545 219h4q156 0 372 -79l-26 -287h-90q-8 125 -52 190q-78 119 -237 119q-223 0 -410.5 -259t-187.5 -566q0 -207 113 -330q88 -96 249 -96q170 0 318 106q27 18 106 80l31 -37q-269 -247 -557 -247h-2q-207 0 -336 142t-129 370z" />
<glyph unicode="D" horiz-adv-x="1392" d="M-2 0v47l70 8q80 10 109.5 47t66.5 172l225 820q31 113 31 149q0 59 -90 70l-58 6v47l152 -2l104 -2h-2l201 6h29q197 0 354 -76q127 -63 198.5 -178t71.5 -256q0 -176 -73.5 -367.5t-182.5 -295.5q-207 -199 -555 -199q-43 0 -205 6q-55 2 -170 2q-53 0 -276 -4zM379 76 q115 -6 184 -6q338 0 498 188q82 96 139 273.5t57 332.5q0 426 -481 426h-61z" />
<glyph unicode="E" horiz-adv-x="1335" d="M-2 0v47l70 6q80 6 108.5 45t67.5 176l225 818q31 111 31 151q0 66 -90 72l-58 4v47q197 -4 527 -4q331 0 532 4l-33 -266h-41q-16 127 -51 158.5t-153 31.5h-418l-154 -559h334q94 0 147.5 12.5t87.5 96.5q4 10 15 34h51l-106 -380h-48q10 74 11 94q0 39 -26 54t-93 15 h-393l-162 -581h446q182 0 266.5 43t157.5 174h45l-102 -293l-797 4q-221 0 -397 -4z" />
<glyph unicode="F" horiz-adv-x="1032" d="M-2 0v47l70 8q80 10 109.5 47t66.5 172l225 818q31 111 31 151q0 66 -90 72l-58 4v47q193 -4 459 -4q268 0 463 4l-33 -266h-41q-14 127 -49 158.5t-154 31.5h-282l-150 -545h168q96 0 149.5 12.5t88.5 96.5l14 35h51l-106 -381h-47q10 70 10 92q0 47 -37 64q-23 8 -82 8 h-229l-111 -398q-31 -111 -31 -151q0 -59 91 -70l57 -6l-2 -47l-287 4q-39 0 -264 -4z" />
<glyph unicode="G" horiz-adv-x="1513" d="M172 543q0 197 99.5 379t273.5 307q220 157 476 157h3q127 0 227.5 -26t245.5 -96l-37 -224h-80q-10 287 -327 287q-297 0 -478 -250q-86 -119 -142 -285.5t-56 -304.5q0 -195 113.5 -324.5t285.5 -129.5q84 0 169 28.5t112 67.5q16 23 35 88l28 100q31 109 31 150 q0 66 -90 72l-60 4v49l291 -4q45 0 264 4l-2 -49l-69 -6q-80 -6 -107.5 -44t-66.5 -176l-64 -229q-258 -108 -449 -108h-3q-281 0 -452 154.5t-171 408.5z" />
<glyph unicode="H" horiz-adv-x="1509" d="M-2 0v47l68 8q80 10 109.5 47t66.5 172l227 818q31 111 31 151q0 59 -90 70l-60 6v47l291 -4q39 0 264 4v-47l-69 -8q-80 -10 -110 -47t-67 -172l-100 -365h658l100 365q31 111 31 151q0 59 -91 70l-57 6v47l291 -4q39 0 262 4v-47l-70 -8q-80 -10 -108.5 -47t-65.5 -172 l-227 -820q-31 -111 -31 -149q0 -59 90 -70l58 -6v-47l-291 4q-39 0 -262 -4v47l69 8q80 10 110 47t67 172l104 379h-657l-111 -397q-27 -96 -27 -133q0 -59 91 -70l59 -6l-2 -47l-289 4q-39 0 -262 -4z" />
<glyph unicode="I" horiz-adv-x="659" d="M-2 0v47l70 8q80 10 109.5 47t66.5 172l225 820q31 113 31 149q0 59 -90 70l-58 6v47l291 -4q39 0 262 4v-47l-69 -8q-80 -10 -110 -47t-67 -172l-225 -820q-31 -113 -31 -149q0 -59 91 -70l57 -6l-2 -47l-289 4q-39 0 -262 -4z" />
<glyph unicode="J" horiz-adv-x="743" d="M12 49v168h131q2 -8 2 -20q10 -147 93 -148q51 0 73.5 42t32.5 157q6 66 27 141l194 705q31 111 31 149q0 59 -90 70l-60 6l3 47l288 -4q39 0 262 4v-47l-67 -8q-80 -10 -109.5 -48t-66.5 -171l-183 -660q-49 -180 -110 -293q-83 -153 -248 -153h-2q-109 0 -201 63z" />
<glyph unicode="K" horiz-adv-x="1546" d="M-2 0v47l70 8q80 10 109.5 47t66.5 172l225 820q31 113 31 149q0 61 -88 70l-60 6v47l291 -4q41 0 264 4v-47l-69 -8q-80 -10 -110 -47t-66 -172l-99 -361l490 340q209 145 209 201q0 35 -97 43l-24 4v47l225 -4q92 0 205 4v-45q-96 -23 -160.5 -60.5t-239.5 -175.5 q-41 -33 -92 -69l-301 -219l363 -545q74 -113 134 -151t189 -52v-49l-319 4q-66 0 -311 -4l2 49q94 10 123.5 23.5t29.5 46.5q0 20 -33 71l-319 506l-107 -78l-94 -346q-33 -121 -33 -149q0 -59 91 -70l59 -6v-47l-291 4q-41 0 -264 -4z" />
<glyph unicode="L" horiz-adv-x="1116" d="M-2 0v49l70 6q80 16 109.5 52t66.5 167l225 820q31 113 31 149q0 59 -90 70l-58 6v47l287 -4q41 0 266 4v-47l-69 -8q-80 -10 -110 -47t-67 -172l-280 -1014h283q182 0 266 42t157 173h45l-102 -293q-326 4 -653 4q-211 0 -377 -4z" />
<glyph unicode="M" horiz-adv-x="1728" d="M27 0l2 47q63 6 97 45t62 144l271 966q4 14 4 23q0 53 -41 75q-20 12 -84 19v47h113h67l35 -2q72 0 127 2l121 -1153l710 1153q45 -2 103 -2q2 0 33 2h57h86v-47q-70 -10 -94.5 -41t-44.5 -141l-158 -863q-16 -90 -16 -133q0 -74 92 -86l63 -8v-47l-276 4q-35 0 -258 -4 v47l65 8q78 10 103.5 47t50.5 172l166 910l-666 -1090l6 -94h-174l-131 1137l-280 -959q-14 -49 -15 -65q0 -51 96 -66v-47q-76 4 -147 4q-72 0 -145 -4z" />
<glyph unicode="N" horiz-adv-x="1320" d="M-14 0v47l41 8q82 16 110.5 51t65.5 168l246 897l-89 195h193l508 -1106l231 834q31 111 31 149q0 57 -90 70l-45 6v47l211 -4q78 0 178 4v-47l-41 -8q-82 -16 -110.5 -52t-65.5 -167l-254 -920l76 -172h-193l-491 1071l-228 -799q-31 -109 -30 -149q0 -57 90 -70l45 -6 v-47l-211 4q-76 0 -178 -4z" />
<glyph unicode="O" horiz-adv-x="1423" d="M174 512q0 160 61.5 324.5t165 286.5t257 192.5t313.5 70.5q227 0 371.5 -150.5t144.5 -387.5q0 -199 -79 -388.5t-210 -303.5q-201 -176 -483 -176q-229 0 -363 114q-178 154 -178 418zM375 471q0 -205 94 -320.5t260 -115.5q127 0 234.5 56t169.5 157q151 248 151 619 q0 224 -88 341t-252 117q-272 0 -420.5 -251t-148.5 -603z" />
<glyph unicode="P" horiz-adv-x="1105" d="M-2 0v47l70 8q80 10 109.5 47t66.5 172l225 820q31 113 31 149q0 59 -90 70l-58 6v47q63 0 152 -2q76 -2 108 -2q33 0 137.5 4t122.5 4q195 0 302.5 -82t107.5 -229q0 -121 -62.5 -233.5t-160.5 -172.5q-133 -80 -410 -80q-16 1 -131 5l-84 -306q-31 -113 -31 -149 q0 -59 91 -70l57 -6v-47l-291 4q-39 0 -262 -4zM537 643q84 -6 122 -6q195 0 279 72q61 51 103 161.5t42 214.5q0 217 -254 218h-110z" />
<glyph unicode="Q" horiz-adv-x="1605" d="M174 516q0 156 61.5 320.5t166 287.5t256 192.5t315.5 69.5q227 0 370.5 -150.5t143.5 -391.5q0 -199 -79 -387.5t-210 -304.5q-111 -98 -303 -160q55 -76 248 -105q85 -12 280 -16v-35q-121 -16 -262 -16q-246 0 -346 28.5t-174 118.5q-154 31 -231 80 q-236 152 -236 469zM375 463q0 -205 94 -321.5t260 -116.5q274 0 404 213q152 248 151 628q0 459 -340 459q-270 0 -419.5 -251t-149.5 -611z" />
<glyph unicode="R" horiz-adv-x="1445" d="M-2 0v47l70 8q80 10 109.5 47t66.5 172l227 820q31 111 31 149q0 59 -90 70l-60 6v47q66 0 154 -2q74 -2 102 -2q16 0 137 4t150 4q184 0 295 -59q158 -86 158 -254q0 -109 -52.5 -206t-140.5 -149q-57 -35 -188 -75l209 -428q41 -82 87 -113t150 -39v-47l-137 2h-111 l-100 2l-283 594q-90 -4 -120 -4q-27 0 -76 2q-17 0 -62 2l-90 -326q-31 -111 -31 -149q0 -59 91 -70l59 -6v-47l-291 4q-41 0 -264 -4zM545 674q82 -8 129 -8q244 0 350 100q133 125 133 311q0 219 -303 219q-33 0 -137 -6z" />
<glyph unicode="S" horiz-adv-x="1122" d="M74 162l26 250h109q8 -125 37 -193q35 -84 123 -133t204 -49q152 0 257.5 81t105.5 199q0 90 -80 166q-47 43 -278 172q-160 88 -225.5 172t-65.5 199q0 160 134 260t349 100q177 0 404 -90l-23 -252h-92q-4 150 -72.5 216.5t-214.5 66.5q-145 0 -240.5 -66.5 t-95.5 -170.5q0 -74 62 -138q41 -43 194 -121q174 -88 279 -176q133 -111 133 -274q0 -172 -144.5 -286.5t-361.5 -114.5q-238 0 -524 182z" />
<glyph unicode="T" horiz-adv-x="1159" d="M225 1059l127 307l522 -4q180 0 535 4l-25 -307h-41q-8 117 -24 149q-35 72 -160 72h-205l-278 -1008q-31 -111 -31 -149q0 -63 90 -70l86 -6v-47l-315 4q-45 0 -279 -4v47l82 8q80 8 110 46t66 173l279 1006h-186q-106 0 -176 -49t-136 -172h-41z" />
<glyph unicode="U" horiz-adv-x="1404" d="M352 1319v47l281 -4q45 0 268 4v-47l-61 -8q-80 -10 -109 -48t-55 -171l-121 -582q-33 -158 -33 -234q0 -86 37 -139q66 -94 232 -94q170 0 275 118t167 374l133 557q25 102 25 143q0 68 -88 76l-86 8v47q113 -4 233 -4q115 0 213 4v-47l-59 -8q-78 -10 -107 -48 t-61 -171l-136 -562q-51 -217 -137 -344q-136 -204 -417 -204h-3q-184 0 -286.5 84t-102.5 233q0 66 29 213l113 580q18 94 18 135q0 74 -90 84z" />
<glyph unicode="V" horiz-adv-x="1335" d="M311 1319v47l277 -4q63 0 254 4v-47l-29 -4l-43 -6q-66 -10 -84 -29q-24 -22 -24 -79q0 -22 4 -81l67 -932l613 957q49 76 49 112q0 47 -101 62v47l176 -4q37 0 164 4v-47q-96 -6 -176 -129l-721 -1112l4 -78h-168l-84 1118q-8 123 -36.5 154t-141.5 47z" />
<glyph unicode="W" horiz-adv-x="1853" d="M309 1319l2 47l256 -4q66 0 256 4v-47q-94 -10 -114 -21q-33 -16 -33 -84q0 -16 2 -43l74 -991l440 867q-4 74 -4 145q0 51 10 174h164q-6 -135 -6 -170q0 -74 10 -195l72 -839l456 993q37 80 37 107q0 43 -90 53l-20 4v47q98 -4 168 -4q72 0 161 4v-47q-61 -14 -94 -44 t-65 -97l-547 -1125l4 -53h-164l-84 918l-444 -848l4 -70h-166l-82 1083q-10 129 -45 176.5t-129 55.5q-4 0 -29 4z" />
<glyph unicode="X" horiz-adv-x="1390" d="M35 0v47q178 18 350 219l334 389l-191 492q-37 94 -73.5 122.5t-145.5 49.5v47l266 -4q63 0 263 4v-47q-25 -4 -29 -4q-61 -10 -78 -17q-35 -16 -35 -61q0 -33 15 -70l147 -389l356 408q47 53 48 82q0 33 -82 47q-2 2 -15 4v47l195 -4q45 0 201 4v-47q-90 -14 -154 -54 t-154 -141l-368 -417l172 -443q47 -121 95 -159.5t171 -57.5v-47l-260 4q-61 0 -279 -4v47q37 4 39 4q96 8 97 66q0 14 -9 43l-161 418l-314 -365q-74 -86 -74 -119q0 -23 62 -35q12 -2 45 -12v-47l-221 4q-45 0 -213 -4z" />
<glyph unicode="Y" horiz-adv-x="1331" d="M311 1319v47l275 -4q72 0 274 4v-47q-88 -6 -100 -8q-55 -14 -55 -68q0 -25 8 -51l161 -545l449 549q27 33 27 61q0 37 -58 50q0 2 -84 12v47l215 -4q47 0 205 4v-47q-125 -10 -211 -115l-520 -637l-82 -295q-31 -111 -31 -149q0 -63 90 -70l87 -6v-47l-316 4 q-45 0 -278 -4v47l82 8q80 8 108.5 45t67.5 174l82 293l-181 594q-41 137 -215 158z" />
<glyph unicode="Z" horiz-adv-x="1175" d="M53 0v63l963 1223h-387q-129 0 -190.5 -34.5t-121.5 -137.5h-43l93 252l430 -4q102 0 450 4l-6 -86l-946 -1198h440q166 0 231.5 36t141.5 171h45l-104 -289l-562 4q-158 0 -434 -4z" />
<glyph unicode="[" horiz-adv-x="552" d="M10 -223l479 1724h334v-74h-231l-436 -1577h209l2 -73h-357z" />
<glyph unicode="\" horiz-adv-x="569" d="M-84 1366h147l590 -1403h-145z" />
<glyph unicode="]" horiz-adv-x="552" d="M-121 -150h232l438 1577h-211v74h354l-477 -1724h-334z" />
<glyph unicode="^" horiz-adv-x="864" d="M0 616l371 750h123l370 -750h-139l-293 594l-293 -594h-139z" />
<glyph unicode="_" horiz-adv-x="1024" d="M0 -154h1024v-102h-1024v102z" />
<glyph unicode="`" horiz-adv-x="634" d="M539 1458h176q-2 -16 -2 -37q0 -63 30.5 -145t71.5 -125l-22 -21q-92 49 -166 144.5t-88 183.5z" />
<glyph unicode="a" horiz-adv-x="1013" d="M80 233q0 109 59.5 242t155.5 242q188 213 362 213q96 0 172 -84l23 84l139 -15l-20 -67q-10 -31 -15 -53l-8 -37l-135 -486q-25 -88 -25 -129q0 -57 46 -57q49 0 180 82l22 -31q-179 -151 -303 -151h-2q-104 0 -104 94q0 41 14 92l45 160q-80 -104 -151 -187 q-140 -159 -258 -159h-1q-84 0 -140 70.5t-56 176.5zM231 238q0 -145 111 -146q115 0 315 285q27 37 56 53l80 287q2 8 2 24q0 57 -38 97.5t-91 40.5q-150 0 -295 -240q-139 -231 -140 -401z" />
<glyph unicode="b" horiz-adv-x="1058" d="M160 160l307 1104q16 59 16 84q0 20 -22 20q-39 0 -142 -78l-22 27q102 94 168 145q53 41 110 41q82 0 82 -49q0 -17 -14 -68l-197 -710q244 260 418 260q100 0 166 -68.5t66 -177.5q0 -233 -201 -468.5t-442 -235.5q-154 0 -269 75q-32 22 -32 46.5t8 52.5zM307 147 q0 -110 147 -110h3q176 0 327 225q145 217 146 400q0 72 -42 120.5t-104 48.5q-68 0 -156.5 -63t-148.5 -154q-8 -12 -37 -61q-11 -17 -36 -27l-89 -313q-10 -37 -10 -66z" />
<glyph unicode="c" horiz-adv-x="913" d="M92 305q0 115 65.5 242t176.5 227q172 156 354 156q154 0 209 -86q18 -29 18 -88q0 -45 -13 -63.5t-58 -18.5q-33 0 -44.5 10t-11.5 45q-4 156 -143 156q-154 0 -268 -185q-127 -203 -127 -391q0 -102 55 -165.5t146 -63.5q190 0 376 213l25 -21q-43 -59 -107 -114 q-193 -172 -362 -172q-119 0 -205 94t-86 225z" />
<glyph unicode="d" horiz-adv-x="1052" d="M82 233q0 109 59.5 242t155.5 242q188 213 362 213q96 0 172 -84l115 418q18 68 19 84q0 20 -23 20q-39 0 -143 -78l-21 27q76 72 168 145q51 41 109 41q84 0 84 -49q0 -16 -15 -68l-309 -1114q-25 -88 -24 -129q0 -57 45 -57q49 0 180 82l22 -31q-179 -151 -303 -151h-2 q-104 0 -104 94q0 41 14 92l45 160q-80 -104 -151 -187q-140 -159 -257 -159h-1q-84 0 -140.5 70.5t-56.5 176.5zM233 238q0 -145 111 -146q115 0 315 285q27 37 56 53l80 287q2 8 2 24q0 57 -38 97.5t-91 40.5q-150 0 -295 -240q-139 -231 -140 -401z" />
<glyph unicode="e" horiz-adv-x="960" d="M86 268q0 121 69.5 260.5t184.5 245.5q166 156 362 156q102 0 162 -37t60 -100q0 -98 -88 -191q-80 -82 -185 -117q-117 -41 -385 -43q-31 -92 -30 -141q0 -100 60 -159.5t163 -59.5q198 0 395 147l25 -28q-262 -215 -494 -215q-131 0 -215 79.5t-84 202.5zM281 494h55 q260 0 381 137q72 82 71 151q0 92 -114 92q-125 0 -250 -139q-82 -91 -143 -241z" />
<glyph unicode="f" horiz-adv-x="557" d="M10 -350q49 76 86 190.5t131 491.5l62 243l80 285h-211v55h225q78 305 199 506q66 109 145 109q57 0 57 -43v-84q0 -47 -41 -47q-23 0 -53 28q-6 6 -14 7q-27 0 -60 -123q-20 -88 -41 -176l-49 -177h207v-55h-221l-178 -643l-156 -506l-168 -86v25z" />
<glyph unicode="g" horiz-adv-x="960" d="M-20 -213q0 61 71 137l117 125q-51 51 -51 86q0 72 123 176l69 60q-139 90 -139 215q0 137 113 237q150 133 319 133q137 0 236 -110l63 49q39 31 55 31q23 0 23 -49q0 -37 -27 -37l-22 6q-4 2 -10 2q-19 0 -27 -8l-37 -31q10 -41 10 -84q0 -168 -149 -281 q-121 -90 -250 -90q-35 0 -59 2l-25 2l-84 -69q-45 -37 -45 -84q0 -45 100 -68l224 -49q256 -57 256 -211q0 -115 -131.5 -194.5t-319.5 -79.5q-162 0 -282.5 55t-120.5 129zM82 -197q0 -61 97 -111t216 -50q133 0 226.5 59t93.5 143q0 61 -94 101q-80 33 -359 73 q-16 3 -41 9l-80 -95q-59 -70 -59 -129zM311 565q0 -168 144 -168q121 0 209 127q79 114 79 235q0 71 -43.5 116t-111.5 45q-111 0 -194 -114t-83 -241z" />
<glyph unicode="h" horiz-adv-x="1187" d="M115 14l346 1250q18 66 18 82q0 23 -24 22q-39 0 -150 -78l-22 27q133 117 186 151.5t100 34.5q84 0 84 -49q0 -16 -14 -68l-268 -966q209 238 307 328q203 182 332 182q104 0 104 -115q0 -78 -49 -217l-115 -326q-24 -67 -24 -124q0 -62 43 -62q49 0 180 82l22 -31 q-179 -151 -303 -151h-2q-104 0 -104 96q0 66 43 190l88 256q63 184 63 230q0 55 -51 55q-94 0 -272 -180q-129 -129 -221 -254q-31 -41 -40.5 -49t-29.5 -11l-90 -325z" />
<glyph unicode="i" horiz-adv-x="561" d="M125 743q113 102 168 144.5t110 42.5q82 0 82 -49q0 -18 -14 -70l-149 -539q-25 -88 -25 -129q0 -57 45 -57q51 0 180 82l23 -31q-179 -151 -303 -151h-2q-102 0 -103 96q0 39 15 90l143 518q16 59 16 82q0 20 -22 21q-35 0 -142 -76zM403 1282q0 39 29 68.5t68 29.5 t67.5 -27.5t28.5 -66.5t-29.5 -68.5t-70.5 -29.5q-37 0 -65 27.5t-28 66.5z" />
<glyph unicode="j" horiz-adv-x="489" d="M-113 -377q96 61 134 125t90 252l190 690q18 68 18 82q0 20 -22 21q-37 0 -143 -76l-23 26q129 119 180 153t99 34q84 0 84 -49q0 -18 -15 -70l-260 -938q-43 -156 -90 -188q-20 -14 -227 -97zM422 1282q0 39 28.5 68.5t67.5 29.5t67.5 -27.5t28.5 -66.5t-29.5 -68.5 t-70.5 -29.5q-37 0 -64.5 27.5t-27.5 66.5z" />
<glyph unicode="k" horiz-adv-x="1079" d="M106 14l353 1272q12 45 12 62q0 20 -22 20q-39 0 -144 -78l-20 27q92 86 168 145q51 41 108 41q84 0 84 -49q0 -16 -14 -68l-264 -956q135 76 393 363q123 137 201 137q45 0 56 -13.5t11 -62.5v-27q0 -67 -51 -67h-2q-31 0 -66 20q-16 10 -28 11q-29 0 -156 -132 q-68 -70 -127 -124l133 -271q82 -166 152 -166q61 0 149 109l29 -25q-130 -196 -251 -196h-1q-88 0 -184 198l-133 273q-20 -14 -66 -45q-18 -10 -80 -50l-102 -368z" />
<glyph unicode="l" horiz-adv-x="561" d="M135 80q0 41 15 92l303 1092q18 66 18 84q0 20 -22 20q-35 0 -144 -78l-22 27q113 102 168 144t110 42q82 0 82 -49q0 -16 -14 -68l-307 -1114q-25 -90 -25 -129q0 -57 45 -57q49 0 180 82l21 -31q-179 -151 -301 -151h-2q-104 0 -105 94z" />
<glyph unicode="m" horiz-adv-x="1771" d="M106 14l189 676q16 59 16 82q0 20 -22 21q-37 0 -142 -76l-22 26q113 102 168 144.5t110 42.5q82 0 82 -49q0 -18 -14 -70l-98 -356q31 29 114 114q201 213 298.5 287t179.5 74q51 0 82.5 -25.5t31.5 -66.5q0 -37 -28 -144l-66 -239q20 20 49 45q20 20 115 121 q156 166 281 253q82 57 161 58q113 0 113 -103q0 -63 -31 -153l-137 -404q-27 -78 -27 -125q0 -61 45 -61q51 0 181 82l22 -31q-181 -151 -303 -151h-2q-102 0 -102 96q0 70 41 190l133 392q20 59 20 88q0 65 -55 65h-2q-66 0 -242 -166q-43 -41 -229 -243q-20 -23 -55 -35 l-105 -379l-137 20l164 590q31 111 30 162q0 55 -47 55q-63 0 -282 -221q-51 -51 -129 -133q-16 -23 -49 -57q-20 -23 -28.5 -28t-27.5 -9l-108 -387z" />
<glyph unicode="n" horiz-adv-x="1187" d="M115 14l188 676q16 59 16 80q0 23 -22 23q-39 0 -150 -76l-24 26q133 117 186 152t101 35q84 0 84 -49q0 -18 -15 -70l-108 -391q217 248 305 328q203 182 334 182q104 0 104 -117q0 -76 -49 -215l-115 -326q-24 -67 -24 -124q0 -62 43 -62q49 0 180 82l22 -31 q-179 -151 -303 -151h-2q-104 0 -104 96q0 66 43 190l88 256q63 184 63 230q0 55 -51 55q-94 0 -272 -180q-129 -129 -221 -254q-31 -41 -40.5 -49t-29.5 -11l-90 -325z" />
<glyph unicode="o" horiz-adv-x="1024" d="M113 324q0 250 167 428t398 178q166 0 260 -92.5t94 -253.5q0 -242 -172 -420t-405 -178q-158 0 -250 91t-92 247zM262 262q0 -100 60.5 -163.5t156.5 -63.5q238 0 348 303q55 150 56 276q0 123 -61 195t-165 72q-170 0 -266 -156q-55 -90 -92 -222t-37 -241z" />
<glyph unicode="p" horiz-adv-x="1001" d="M-109 -383h17q63 0 86 27q14 16 35 92l266 954q16 59 16 82q0 20 -22 21q-37 0 -144 -76l-20 26q131 119 180 153t98 34q82 0 82 -49q0 -19 -14 -70l-49 -178q236 297 438 297q88 0 141.5 -59.5t53.5 -159.5t-62.5 -238.5t-158.5 -257.5q-188 -229 -365 -229 q-113 0 -188 135l-109 -385q-8 -29 -8 -60q0 -59 96 -59h45v-41h-414v41zM313 231q0 -80 45 -135t109 -55q147 0 292.5 234.5t145.5 402.5q0 156 -127 156q-111 0 -243 -140q-70 -72 -107 -149q-6 -14 -33 -41l-12 -8l-68 -244q-2 -8 -2 -21z" />
<glyph unicode="q" horiz-adv-x="1040" d="M76 246q0 111 66.5 249t174.5 250q178 184 355 185q129 0 200 -129q43 27 91 114h86l-320 -1153q-18 -66 -18 -100q0 -45 55 -45h45v-41h-444v41h59q98 0 125 51q16 29 35 99l137 493q-248 -274 -426 -274q-94 0 -157.5 74.5t-63.5 185.5zM229 250q0 -68 40 -114t100 -46 q178 0 336 248q37 57 57 59l72 262q6 23 6 39q0 72 -50.5 127.5t-115.5 55.5q-143 0 -291 -209q-66 -92 -110 -214t-44 -208z" />
<glyph unicode="r" horiz-adv-x="731" d="M106 14l189 676q16 59 16 82q0 20 -22 21q-37 0 -142 -76l-22 26q113 102 168 144.5t110 42.5q82 0 82 -49q0 -18 -14 -70l-86 -311q190 272 265 351t149 79q70 0 67 -49l-2 -62q-2 -55 -53 -55q-27 0 -70 24q-10 8 -24 9q-82 0 -223 -217q-82 -127 -101 -162 q-14 -20 -39 -29l-110 -395z" />
<glyph unicode="s" horiz-adv-x="757" d="M35 115q0 70 14 86q10 10 35 10q43 0 49 -35q23 -137 178 -137q102 0 179 54t77 124q0 63 -31.5 103t-138.5 114q-172 119 -172 238q0 106 104.5 182t252.5 76q176 0 209 -51q8 -16 8 -52q0 -88 -56 -88q-29 0 -34 35q-8 49 -49.5 81t-98.5 32q-84 0 -145.5 -47 t-61.5 -113q0 -47 31 -85t136.5 -115.5t145.5 -134t40 -124.5q0 -113 -126 -197.5t-294 -84.5q-113 0 -221 61q-31 16 -31 68z" />
<glyph unicode="t" horiz-adv-x="495" d="M113 80q0 41 14 92l190 688h-133v49q100 2 182.5 68.5t122.5 179.5h56l-68 -242h168v-55h-182l-164 -588q-25 -88 -25 -129q0 -57 45 -57q49 0 181 82l22 -31q-78 -66 -165 -108.5t-140 -42.5q-104 0 -104 94z" />
<glyph unicode="u" horiz-adv-x="1171" d="M117 111q0 57 33 155l141 424q20 61 20 82q0 20 -22 21q-37 0 -144 -76l-20 26q109 100 166 143.5t112 43.5q82 0 82 -47q0 -45 -61 -228l-121 -360q-35 -104 -35 -129q0 -61 60 -62q154 0 467 414q33 43 45 56.5t41 25.5l92 332l139 -10l-178 -650q-25 -90 -25 -129 q0 -57 43 -57q49 0 181 82l22 -31q-179 -151 -303 -151h-2q-102 0 -102 94q0 41 14 92l94 340q-14 -8 -16 -12q-29 -31 -113 -140q-123 -158 -270 -278q-117 -96 -215 -96q-55 0 -90 34.5t-35 90.5z" />
<glyph unicode="v" horiz-adv-x="870" d="M84 694q88 117 180 207q29 29 72 29q53 0 65 -47q23 -80 39 -273l41 -487q96 72 267.5 281.5t171.5 332.5q0 47 -50 51q-39 4 -49 23q-6 12 -6 55q0 63 70 64q135 0 135 -127q0 -190 -365 -590q-139 -154 -223 -213q-20 -14 -41 -14q-33 0 -40 23.5t-13 137.5 q-23 469 -53 594q-12 49 -31 50q-35 0 -141 -123z" />
<glyph unicode="w" horiz-adv-x="1456" d="M84 698q90 127 174 201q35 31 78 31q41 0 53 -35q6 -20 25.5 -163.5t25.5 -209.5l31 -389q88 90 196.5 298t194.5 454q10 31 19.5 38t38.5 7q45 0 51 -31q20 -88 41 -278l57 -510q109 82 262 276q66 84 121 190.5t55 151.5q0 41 -51 51q-31 6 -39 17.5t-8 48.5 q0 49 12.5 66.5t53.5 17.5q129 0 129 -121q0 -203 -357 -598q-147 -164 -213 -209q-25 -16 -53 -16q-29 0 -39 24q-2 8 -22 240q-29 326 -54 461q-49 -113 -164 -330q-57 -109 -140 -227.5t-126 -151.5q-20 -16 -47 -16q-41 0 -43 35.5t-18 273.5q-12 184 -33 338 q-8 61 -8 63q-8 90 -41 90q-29 0 -103 -84q-7 -7 -30 -32z" />
<glyph unicode="x" horiz-adv-x="962" d="M-12 53q0 59 8 73.5t43 14.5q41 0 63 -28q12 -16 33 -17q68 0 217 221l101 148l-52 211q-35 143 -65 143q-31 0 -137 -90q-6 -6 -27 -20l-22 28q195 193 270 193q47 0 67 -41q6 -14 25 -86l45 -180l107 147q115 160 221 160q55 0 65 -23q6 -12 6 -35q0 -61 -10 -75.5 t-53 -14.5q-14 0 -66 35q-16 12 -28 12q-39 0 -129 -127l-99 -139l78 -317q33 -137 88 -137q61 0 154 108q2 4 22 29l27 -31q-66 -102 -140.5 -165.5t-131.5 -63.5q-94 0 -144 198l-55 222l-82 -117q-127 -180 -196.5 -241.5t-141.5 -61.5q-39 0 -50 14t-11 53z" />
<glyph unicode="y" horiz-adv-x="794" d="M-25 -336q0 70 52 70q39 0 79 -25q14 -10 29 -10q98 0 334 338l-96 485q-27 131 -56 211q-25 66 -55 66q-41 0 -147 -121l-29 27q195 225 246 225q55 0 67 -27q46 -92 107 -387l69 -332q285 422 285 557q0 49 -65 62q-25 4 -25 45q0 82 61 82q115 0 115 -111 q0 -174 -328 -653q-201 -293 -348 -445q-76 -78 -122 -104.5t-105 -26.5q-45 0 -56.5 16.5t-11.5 57.5z" />
<glyph unicode="z" horiz-adv-x="876" d="M66 35q29 63 317 399q258 301 289 385h-248q-113 0 -152 -22.5t-98 -122.5l-33 18q84 158 119 197t88 39h473q-27 -78 -196 -285q-8 -10 -74 -88l-131 -156q-55 -63 -101 -118q-55 -68 -71 -103q72 -25 180 -127q57 -55 143 -125q37 -22 71 -22h3q55 0 55 33q0 8 -12 26 q-18 18 -18 55q0 39 14 48.5t72 9.5q53 0 53 -62q0 -63 -50 -108t-122 -45q-100 0 -264 94q-150 86 -250 86q-20 0 -57 -6z" />
<glyph unicode="{" horiz-adv-x="819" d="M104 -203q0 70 66 295q70 240 70 314q0 78 -107 116q98 27 141 74t74 160l98 364q43 164 128.5 225.5t259.5 61.5l-7 -23q-96 -25 -143 -79t-80 -175l-92 -344q-35 -127 -83 -182t-148 -82q113 -49 112 -129q0 -57 -90 -389q-45 -166 -45 -209q0 -104 109 -135l-7 -22 q-141 4 -198.5 39.5t-57.5 119.5z" />
<glyph unicode="|" horiz-adv-x="563" d="M215 -37v1403h135v-1403h-135z" />
<glyph unicode="}" horiz-adv-x="819" d="M-14 -362l6 22q96 25 143 79t80 175l92 344q35 127 83 182.5t149 81.5q-113 49 -113 129q0 61 90 389q45 164 45 207q1 106 -108 137l6 23q139 -4 197.5 -41t58.5 -119q0 -98 -67.5 -304t-67.5 -304q0 -78 106 -117q-98 -27 -141 -74t-74 -159l-98 -365 q-43 -162 -128 -224t-259 -62z" />
<glyph unicode="~" horiz-adv-x="1107" d="M82 481q70 98 125 136t127 38q70 0 123 -18.5t188 -91.5q53 -29 121 -29q82 1 152 105l110 -66q-70 -98 -125 -136t-127 -38q-70 0 -123 18.5t-188 92.5q-53 29 -121 28q-82 0 -151 -104z" />
<glyph unicode="&#xa1;" horiz-adv-x="409" d="M-14 -362q0 74 184 591l100 283h35q-41 -295 -147 -770q-37 -168 -50.5 -186.5t-27.5 -18.5q-25 0 -74 51q-20 20 -20 50zM254 819q0 43 35 77t80 34q41 0 72.5 -32t31.5 -75q0 -45 -32.5 -78.5t-75.5 -33.5q-45 0 -78 31.5t-33 76.5z" />
<glyph unicode="&#xa2;" d="M227 504q0 199 171 396.5t370 227.5l53 193h51l-53 -193q131 0 199 -63q37 -35 37 -115q0 -51 -16.5 -64.5t-55.5 -13.5q-35 0 -43 9.5t-10 48.5q-2 76 -30 109.5t-93 43.5l-223 -802q78 -6 183.5 52.5t197.5 158.5l24 -19q-82 -111 -218 -201t-214 -86l-63 -231h-52 l66 231q-123 16 -202 104.5t-79 213.5zM389 510q1 -180 146 -223l221 794q-82 -16 -132.5 -55t-105.5 -127q-129 -205 -129 -389z" />
<glyph unicode="&#xa3;" d="M104 63q119 98 170.5 210t90.5 358h-160v51h170q0 4 26 139q45 236 99 350q96 209 299 209q78 0 178 -55v-151h-100q2 12 2 34q0 123 -113 123q-129 0 -166 -205q-14 -82 -47 -307q-8 -53 -21 -137h287v-51h-301q-41 -145 -80 -230q-43 -90 -133 -223q66 16 107 17 q63 0 194 -54q111 -45 164 -45q72 0 154 94l32 -24q-61 -102 -118.5 -141t-149.5 -39q-96 0 -244 77q-96 51 -133 52q-29 0 -49 -14.5t-84 -75.5q-20 -18 -45 -31z" />
<glyph unicode="&#xa4;" horiz-adv-x="1394" d="M164 592l35 61h82q4 25 12 62h-113l35 61h94q70 233 246 391q246 219 545 219q158 0 377 -79l-27 -287h-88q-10 125 -53 190q-78 119 -238 119q-168 0 -323.5 -155.5t-231.5 -397.5h602l-35 -61h-583q-4 -18 -15 -62h564l-33 -61h-539q-4 -31 -4 -82q0 -213 113 -336 q88 -96 250 -96q168 0 317 106l107 80l30 -37q-268 -248 -559 -247q-217 0 -350 161q-115 139 -115 346q0 14 4 105h-106z" />
<glyph unicode="&#xa7;" d="M106 -4h117q20 -221 242 -221q102 0 175 62.5t73 150.5q0 92 -121 188l-273 215q-121 96 -120 234q0 152 139 233q41 25 125 51q-70 100 -70 189q0 119 109.5 200.5t267.5 81.5q146 0 281 -80l4 -155h-105q-57 176 -215 176q-78 0 -135 -52t-57 -124q0 -88 106 -172 l223 -176q156 -123 156 -250q0 -145 -133 -232q-43 -29 -133 -55q96 -115 96 -229q0 -139 -108.5 -226.5t-282.5 -87.5q-223 0 -361 131v148zM332 676q0 -80 96 -154l285 -217q174 53 174 180q0 84 -113 170l-270 205q-61 -20 -94 -43q-78 -51 -78 -141z" />
<glyph unicode="&#xa8;" horiz-adv-x="843" d="M494 1290q0 43 31.5 76t72.5 33q43 0 75 -31t32 -74q0 -41 -33 -73.5t-78 -32.5q-41 0 -70.5 30.5t-29.5 71.5zM854 1290q0 43 31.5 76t72.5 33q43 0 75 -31t32 -74q0 -41 -33 -73.5t-78 -32.5q-41 0 -70.5 30.5t-29.5 71.5z" />
<glyph unicode="&#xab;" horiz-adv-x="755" d="M92 434l277 397h45l-197 -397l102 -401h-45zM414 434l276 397h45l-196 -397l102 -401h-45z" />
<glyph unicode="&#xad;" horiz-adv-x="583" d="M147 395v137h410v-137h-410z" />
<glyph unicode="&#xaf;" horiz-adv-x="970" d="M508 1219l27 122h636l-26 -122h-637z" />
<glyph unicode="&#xb2;" horiz-adv-x="737" d="M383 547v39q20 20 45 49q20 18 88 82q201 186 279.5 282.5t78.5 161.5q0 51 -36.5 88t-89.5 37q-80 0 -187 -84l-43 37q125 135 258 135q94 0 157.5 -56t63.5 -140q0 -113 -118 -222q-33 -31 -209 -176q-123 -102 -154 -135h297q74 0 100 39h41l-59 -137q-102 2 -217 2 q-66 0 -295 -2z" />
<glyph unicode="&#xb3;" horiz-adv-x="737" d="M379 596v80h72q47 -82 159 -82q92 0 154.5 55.5t62.5 136.5q0 150 -211 166l11 58q258 59 258 184q0 43 -35 71.5t-88 28.5q-43 1 -133 -30l-31 43q104 68 203 67q84 0 141 -46t57 -111q0 -59 -38.5 -102.5t-143.5 -98.5q125 -78 125 -201q0 -115 -100.5 -195.5 t-239.5 -80.5q-100 0 -223 57z" />
<glyph unicode="&#xb4;" horiz-adv-x="634" d="M455 1151q74 49 158.5 145t113.5 162h174q-63 -90 -188 -184t-248 -144z" />
<glyph unicode="&#xb7;" horiz-adv-x="409" d="M168 502q0 45 32.5 78.5t75.5 33.5q45 0 78 -31.5t33 -76.5q0 -43 -35 -77t-80 -34q-41 0 -72.5 32t-31.5 75z" />
<glyph unicode="&#xb8;" horiz-adv-x="555" d="M-37 -393l23 71l59 -14q-6 -23 -6 -31q0 -45 43 -45q39 0 76 53.5t37 112.5q0 66 -76 80q-14 2 -15 14q0 12 9 35l41 117h45l-39 -117h22q43 0 74 -34.5t31 -81.5q0 -76 -66.5 -143.5t-138.5 -67.5q-57 0 -119 51z" />
<glyph unicode="&#xb9;" horiz-adv-x="737" d="M438 547v41q92 2 121 23.5t55 113.5l140 473q4 14 4 27q0 16 -19 16q-16 0 -75 -20l-15 36q25 12 29 13q86 37 176 104h78l-207 -696q-14 -49 -14 -57q0 -27 92 -33v-41l-117 2h-137q-14 -2 -111 -2z" />
<glyph unicode="&#xbb;" horiz-adv-x="755" d="M123 33l196 397l-102 401h45l182 -401l-276 -397h-45zM444 33l197 397l-102 401h47l180 -401l-277 -397h-45z" />
<glyph unicode="&#xbf;" horiz-adv-x="745" d="M-33 -68q0 184 98.5 296t282.5 134q78 10 108.5 38t55.5 112h41q-4 -55 -41 -170q-8 -29 -47 -35q-147 -25 -242 -119q-59 -59 -98 -158.5t-39 -195.5t59.5 -163.5t143.5 -67.5q92 0 168 118l86 -18l-31 -145q-92 -23 -160 -23q-172 0 -278.5 109.5t-106.5 287.5z M465 819q0 43 35 77t80 34q41 0 72.5 -32t31.5 -75q0 -45 -33 -78.5t-76 -33.5q-45 0 -77.5 31.5t-32.5 76.5z" />
<glyph unicode="&#xc4;" horiz-adv-x="1259" d="M-55 0v47q92 4 174 143l647 1096l-6 80h182l90 -1184q6 -80 29.5 -99.5t128.5 -35.5v-47l-252 4q-53 0 -229 -4v47q84 10 110.5 28.5t26.5 67.5v25l-21 258h-477l-162 -272q-18 -31 -18 -52q0 -31 41 -43q4 -2 65 -12v-47q-94 4 -172 4t-157 -4zM393 508h428l-47 647z M575 1587q0 49 36 86t83 37t83 -35t36 -82t-38 -83.5t-87 -36.5q-45 0 -79 34.5t-34 79.5zM965 1587q0 49 35.5 86t82.5 37t83 -35t36 -82t-38 -83.5t-87 -36.5q-45 0 -78.5 34.5t-33.5 79.5z" />
<glyph unicode="&#xc5;" horiz-adv-x="1259" d="M-55 0v47q92 4 174 143l647 1096l-6 80h182l90 -1184q6 -80 29.5 -99.5t128.5 -35.5v-47l-252 4q-53 0 -229 -4v47q84 10 110.5 28.5t26.5 67.5v25l-21 258h-477l-162 -272q-18 -31 -18 -52q0 -31 41 -43q4 -2 65 -12v-47q-94 4 -172 4t-157 -4zM393 508h428l-47 647z M715 1612q0 72 51 126t121 54q72 0 123 -51t51 -121t-54.5 -123t-125.5 -53q-68 0 -117 50t-49 118zM797 1616q0 -37 25.5 -63.5t60.5 -26.5q39 0 67.5 27.5t28.5 66.5q0 35 -27.5 62.5t-64.5 27.5q-35 0 -62.5 -28.5t-27.5 -65.5z" />
<glyph unicode="&#xc6;" horiz-adv-x="2002" d="M-55 0v49q70 4 149 101l983 1163l-125 6v47q199 -4 553 -4q367 0 570 4l-29 -264h-43q-16 127 -50 157.5t-153 30.5h-416l-153 -559h325q92 0 150.5 14.5t91.5 96.5q0 4 12 32h50l-105 -380h-49q8 78 8 94q0 70 -117 69h-387l-161 -579h440q205 0 291 55q78 51 139 164 h45l-102 -297q-279 2 -873 2q-111 0 -321 -2v49l69 6q80 6 107.5 42t66.5 173l43 154h-536l-228 -272q-25 -29 -24 -54q0 -23 16.5 -30t91.5 -19v-49q-94 4 -172 4t-157 -4zM489 506h488l162 584q27 96 26 141q0 39 -26 57z" />
<glyph unicode="&#xc7;" horiz-adv-x="1255" d="M172 492q0 418 289 675q246 219 545 219q157 1 376 -79l-26 -287h-90q-8 125 -52 190q-78 119 -237 119q-223 0 -410.5 -259t-187.5 -566q0 -207 113 -330q88 -96 249 -96q170 0 318 106q27 18 106 80l31 -37q-145 -133 -276.5 -190t-290.5 -57q-31 0 -56 2l-24 -107 q8 2 22 2q45 0 76 -38t31 -91q0 -84 -66.5 -159.5t-140.5 -75.5q-57 0 -119 57l23 80l61 -17q-8 -23 -8 -36q0 -49 43 -50q41 0 78 59.5t37 127.5q0 74 -78 88q-14 2 -14 14q0 6 8 39l28 113q-358 102 -358 504z" />
<glyph unicode="&#xd0;" horiz-adv-x="1392" d="M-2 0v47l70 8q80 10 107.5 47t66.5 172l104 375h-137v72h158l102 373q31 113 31 149q0 59 -90 70l-60 6v47l154 -2q119 -2 102 -2l201 6q215 6 383 -76q127 -63 198.5 -178t71.5 -256q0 -176 -73.5 -367.5t-182.5 -295.5q-207 -199 -555 -199q-43 0 -205 6q-55 2 -170 2 q-53 0 -276 -4zM379 76q115 -6 184 -6q338 0 498 188q82 96 139 273.5t57 332.5q0 426 -481 426h-61l-158 -569h295v-72h-315z" />
<glyph unicode="&#xd6;" horiz-adv-x="1423" d="M174 512q0 160 61.5 324.5t165 286.5t257 192.5t313.5 70.5q227 0 371.5 -150.5t144.5 -387.5q0 -199 -79 -388.5t-210 -303.5q-201 -176 -483 -176q-229 0 -363 114q-178 154 -178 418zM375 471q0 -205 94 -320.5t260 -115.5q127 0 234.5 56t169.5 157q152 250 151 624 q0 219 -88 336t-252 117q-272 0 -420.5 -251t-148.5 -603zM741 1587q0 49 36 86t83 37t83 -35t36 -82t-38 -83.5t-87 -36.5q-45 0 -79 34.5t-34 79.5zM1130 1587q0 49 36 86t83 37t83 -35t36 -82t-38 -83.5t-87 -36.5q-45 0 -79 34.5t-34 79.5z" />
<glyph unicode="&#xd8;" horiz-adv-x="1423" d="M133 0l154 166q-111 133 -111 354q0 156 61.5 318.5t165 284.5t257 192.5t313.5 70.5q190 0 334 -118l143 153l63 -55l-143 -162q117 -141 117 -364q0 -195 -79 -382.5t-208 -301.5q-199 -176 -477 -176q-252 0 -387 126l-146 -157zM375 467q-1 -88 28 -186l809 905 q-100 135 -274 135q-262 0 -412 -248q-68 -113 -109.5 -280.5t-41.5 -325.5zM438 201q94 -166 291 -166q272 0 404 213q68 113 109.5 278.5t41.5 327.5q0 121 -35 252z" />
<glyph unicode="&#xdc;" horiz-adv-x="1404" d="M352 1319v47l281 -4q45 0 268 4v-47l-61 -8q-80 -10 -109 -48t-55 -171l-121 -582q-33 -158 -33 -234q0 -86 37 -139q66 -94 232 -94q170 0 275 118t167 374l133 557q25 102 25 143q0 68 -88 76l-86 8v47q113 -4 233 -4q115 0 213 4v-47l-59 -8q-78 -10 -107 -48 t-61 -171l-136 -562q-51 -217 -137 -344q-137 -205 -420 -204q-184 0 -286.5 84t-102.5 233q0 66 29 213l113 580q18 94 18 135q0 74 -90 84zM776 1587q0 49 36 86t83 37t83 -35t36 -82t-38 -83.5t-87 -36.5q-45 0 -79 34.5t-34 79.5zM1165 1587q0 49 36 86t83 37t83 -35 t36 -82t-38 -83.5t-87 -36.5q-45 0 -79 34.5t-34 79.5z" />
<glyph unicode="&#xdf;" horiz-adv-x="1032" d="M-2 0l2 41l16 2q37 4 50.5 20.5t29.5 73.5l201 723h-70v55q53 2 72.5 22.5t46.5 106.5q55 174 133 289q145 213 381 213q113 0 184.5 -66.5t71.5 -168.5q0 -154 -158 -250q-125 -76 -221 -113q-49 -18 -49 -43q0 -27 69.5 -81t162.5 -146q121 -123 120 -277 q0 -176 -139 -295.5t-344 -119.5q-88 0 -201 34l17 58q88 -16 133 -17q158 0 266.5 105.5t108.5 259.5q0 119 -76 236.5t-201 195.5l29 105q154 57 246 150t92 190q0 63 -52.5 108t-123.5 45q-121 0 -220.5 -104.5t-99.5 -233.5q0 -39 25 -88l-287 -1030h-215z" />
<glyph unicode="&#xe4;" horiz-adv-x="1013" d="M80 233q0 109 59.5 242t155.5 242q188 213 362 213q96 0 172 -84l23 84l139 -15l-20 -67q-10 -31 -15 -53l-8 -37l-135 -486q-25 -88 -25 -129q0 -57 46 -57q49 0 180 82l22 -31q-180 -152 -305 -151q-104 0 -104 94q0 41 14 92l45 160q-80 -104 -151 -187 q-141 -160 -259 -159q-84 0 -140 70.5t-56 176.5zM231 238q0 -145 111 -146q115 0 315 285q27 37 56 53l80 287q2 8 2 24q0 57 -38 97.5t-91 40.5q-150 0 -295 -240q-139 -231 -140 -401zM535 1290q0 43 31.5 76t72.5 33q43 0 74.5 -31t31.5 -74q0 -41 -32.5 -73.5 t-77.5 -32.5q-41 0 -70.5 30.5t-29.5 71.5zM895 1290q0 43 31.5 76t72.5 33q43 0 75 -31t32 -74q0 -41 -33 -73.5t-78 -32.5q-41 0 -70.5 30.5t-29.5 71.5z" />
<glyph unicode="&#xe5;" horiz-adv-x="1013" d="M80 233q0 109 59.5 242t155.5 242q188 213 362 213q96 0 172 -84l23 84l139 -15l-20 -67q-10 -31 -15 -53l-8 -37l-135 -486q-25 -88 -25 -129q0 -57 46 -57q49 0 180 82l22 -31q-180 -152 -305 -151q-104 0 -104 94q0 41 14 92l45 160q-80 -104 -151 -187 q-141 -160 -259 -159q-84 0 -140 70.5t-56 176.5zM231 238q0 -145 111 -146q115 0 315 285q27 37 56 53l80 287q2 8 2 24q0 57 -38 97.5t-91 40.5q-150 0 -295 -240q-139 -231 -140 -401zM666 1315q0 78 55 135t131 57q78 0 133 -54t55 -130t-59 -133t-137 -57 q-72 0 -125 54t-53 128zM762 1317q0 -35 25.5 -61.5t60.5 -26.5q39 0 67.5 27.5t28.5 64.5t-27.5 63.5t-64.5 26.5q-35 0 -62.5 -27.5t-27.5 -66.5z" />
<glyph unicode="&#xe6;" horiz-adv-x="1550" d="M49 147q0 166 203 273q154 82 475 139q4 2 23 4q35 119 34 187q0 123 -151 122q-70 0 -138.5 -28.5t-105.5 -71.5q-25 -29 -37 -84q-8 -37 -73 -37q-49 0 -50 51q0 66 50.5 114t154 81t213.5 33q137 0 227 -70q33 -27 62 -82q168 152 358 152q104 0 172 -45 q47 -31 47 -94q0 -82 -66.5 -164t-172.5 -129q-125 -56 -350 -56h-68q-29 -86 -29 -137q0 -102 59.5 -161.5t164.5 -59.5q133 0 270 66q25 12 106 67l17 12l26 -26q-102 -92 -244.5 -154.5t-248.5 -62.5q-139 0 -229 94q-29 31 -54 90q-150 -104 -243 -144t-187 -40 q-215 0 -215 161zM215 209q0 -117 143 -117q152 0 326 119q-8 35 -8 63q0 107 55 238q-221 -33 -342 -90q-74 -35 -124 -95.5t-50 -117.5zM870 494l76 -2q233 -6 361 139q70 80 69 151q0 92 -112 92q-230 1 -394 -380z" />
<glyph unicode="&#xe7;" horiz-adv-x="913" d="M90 303q0 115 65.5 242t176.5 229q170 156 356 156q154 0 209 -86q18 -29 18 -88q0 -45 -13 -63.5t-58 -18.5q-33 0 -44.5 10t-11.5 45q-4 156 -143 156q-154 0 -268 -185q-127 -203 -127 -391q0 -102 55 -165.5t146 -63.5q186 0 376 213l25 -21q-84 -113 -220 -200.5 t-216 -81.5l-35 -109q8 2 22 2q43 0 74 -34.5t31 -81.5q0 -76 -66.5 -143.5t-138.5 -67.5q-55 0 -119 51l23 71l59 -14q-6 -23 -6 -31q0 -45 43 -45q39 0 76 53.5t37 112.5q0 66 -76 80q-14 2 -14 14q0 8 8 33l37 109q-131 20 -206 104t-75 209z" />
<glyph unicode="&#xe8;" horiz-adv-x="960" d="M86 268q0 121 69.5 260.5t184.5 245.5q166 156 362 156q102 0 162 -37t60 -100q0 -98 -88 -191q-80 -82 -185 -117q-117 -41 -385 -43q-31 -92 -30 -141q0 -100 60 -159.5t163 -59.5q198 0 395 147l25 -28q-262 -215 -494 -215q-131 0 -215 79.5t-84 202.5zM281 494h55 q260 0 381 137q72 82 71 151q0 92 -114 92q-125 0 -250 -139q-82 -91 -143 -241zM565 1458h176q-2 -16 -2 -37q0 -63 31 -145t72 -125l-23 -21q-92 49 -166 144.5t-88 183.5z" />
<glyph unicode="&#xe9;" horiz-adv-x="960" d="M86 268q0 121 69.5 260.5t184.5 245.5q166 156 362 156q102 0 162 -37t60 -100q0 -98 -88 -191q-80 -82 -185 -117q-117 -41 -385 -43q-31 -92 -30 -141q0 -100 60 -159.5t163 -59.5q198 0 395 147l25 -28q-262 -215 -494 -215q-131 0 -215 79.5t-84 202.5zM281 494h55 q260 0 381 137q72 82 71 151q0 92 -114 92q-125 0 -250 -139q-82 -91 -143 -241zM682 1151q74 49 158.5 145t113.5 162h174q-63 -90 -188 -184t-248 -144z" />
<glyph unicode="&#xef;" horiz-adv-x="561" d="M125 743q113 102 168 144.5t110 42.5q82 0 82 -49q0 -18 -14 -70l-149 -539q-25 -88 -25 -129q0 -57 45 -57q51 0 180 82l23 -31q-180 -152 -305 -151q-102 0 -103 96q0 39 15 90l143 518q16 59 16 82q0 20 -22 21q-35 0 -142 -76zM248 1292q0 41 29.5 71t68.5 30 t68.5 -29t29.5 -68t-30.5 -69.5t-71.5 -30.5q-39 0 -66.5 28.5t-27.5 67.5zM514 1292q0 41 29.5 71t68.5 30t69 -29t30 -68t-31 -69.5t-72 -30.5q-39 0 -66.5 28.5t-27.5 67.5z" />
<glyph unicode="&#xf6;" horiz-adv-x="1024" d="M113 324q0 250 167 428t398 178q166 0 260 -92.5t94 -253.5q0 -242 -172 -420t-405 -178q-158 0 -250 91t-92 247zM262 262q0 -100 60.5 -163.5t156.5 -63.5q238 0 348 303q55 150 56 276q0 123 -61 195t-165 72q-170 0 -266 -156q-55 -90 -92 -222t-37 -241zM498 1290 q0 43 31.5 76t72.5 33q43 0 75 -31t32 -74q0 -41 -33 -73.5t-78 -32.5q-41 0 -70.5 30.5t-29.5 71.5zM858 1290q0 43 32 76t73 33q43 0 74.5 -31t31.5 -74q0 -41 -32.5 -73.5t-78.5 -32.5q-41 0 -70.5 30.5t-29.5 71.5z" />
<glyph unicode="&#xf8;" horiz-adv-x="1024" d="M82 0l96 102q-68 104 -67 222q0 248 165.5 427t397.5 179q117 0 225 -62l88 88l41 -41l-86 -84q88 -94 88 -251q0 -242 -172 -418t-407 -176q-133 0 -234 77l-96 -102zM260 264q0 -34 10 -71l553 612q-61 76 -180 76q-195 0 -299 -242q-84 -195 -84 -375zM293 139 q53 -106 188 -106q233 0 344 303q55 152 56 276q0 72 -27 142z" />
<glyph unicode="&#xf9;" horiz-adv-x="1171" d="M117 111q0 57 33 155l141 424q20 61 20 82q0 20 -22 21q-37 0 -144 -76l-20 26q109 100 166 143.5t112 43.5q82 0 82 -47q0 -45 -61 -228l-121 -360q-35 -104 -35 -129q0 -61 60 -62q154 0 467 414q33 43 45 56.5t41 25.5l92 332l139 -10l-178 -650q-25 -90 -25 -129 q0 -57 43 -57q49 0 181 82l22 -31q-180 -152 -305 -151q-102 0 -102 94q0 41 14 92l94 340q-14 -8 -16 -12q-29 -31 -113 -140q-123 -158 -270 -278q-117 -96 -215 -96q-55 0 -90 34.5t-35 90.5zM573 1458h177q-2 -16 -2 -37q0 -63 30.5 -145t71.5 -125l-23 -21 q-92 49 -166 144.5t-88 183.5z" />
<glyph unicode="&#xfc;" horiz-adv-x="1171" d="M117 111q0 57 33 155l141 424q20 61 20 82q0 20 -22 21q-37 0 -144 -76l-20 26q109 100 166 143.5t112 43.5q82 0 82 -47q0 -45 -61 -228l-121 -360q-35 -104 -35 -129q0 -61 60 -62q154 0 467 414q33 43 45 56.5t41 25.5l92 332l139 -10l-178 -650q-25 -90 -25 -129 q0 -57 43 -57q49 0 181 82l22 -31q-180 -152 -305 -151q-102 0 -102 94q0 41 14 92l94 340q-14 -8 -16 -12q-29 -31 -113 -140q-123 -158 -270 -278q-117 -96 -215 -96q-55 0 -90 34.5t-35 90.5zM535 1290q0 43 31.5 76t72.5 33q43 0 74.5 -31t31.5 -74q0 -41 -32.5 -73.5 t-77.5 -32.5q-41 0 -70.5 30.5t-29.5 71.5zM895 1290q0 43 31.5 76t72.5 33q43 0 75 -31t32 -74q0 -41 -33 -73.5t-78 -32.5q-41 0 -70.5 30.5t-29.5 71.5z" />
<glyph unicode="&#x152;" horiz-adv-x="2091" d="M176 514q0 160 60.5 323.5t166.5 286.5q102 117 255 189.5t303 72.5q61 0 172 -20q168 -4 464 -4q361 0 566 4l-31 -262h-43q-14 127 -49 156.5t-154 29.5h-418l-153 -559h332q111 0 143 10q63 20 96 103q4 10 15 33h49l-107 -381h-49q6 31 6 51q4 33 4 43q0 68 -116 67 h-394l-161 -579h444q96 0 186 14q104 16 176 105q27 33 66 98h45l-102 -295l-580 4q-170 0 -457 -4q-104 -20 -192 -20q-229 0 -363 114q-180 156 -180 420zM377 475q0 -197 95 -317.5t249 -120.5q135 0 184 42.5t92 194.5l226 816q18 68 18 100q0 55 -51 82 q-102 53 -238 53q-272 0 -426 -250q-150 -242 -149 -600z" />
<glyph unicode="&#x153;" horiz-adv-x="1683" d="M106 319q0 254 169 432.5t411 178.5q233 0 322 -209q207 209 428 209q96 0 153.5 -38t57.5 -101q0 -98 -86 -188.5t-218 -129.5q-100 -29 -356 -35q-27 -86 -26 -157q0 -199 231 -199q170 0 385 145l25 -28q-102 -94 -240.5 -153.5t-255.5 -59.5q-176 0 -260 149 q-168 -156 -393 -155q-160 0 -253.5 91t-93.5 248zM260 264q0 -106 61.5 -169.5t161.5 -63.5q201 0 299.5 203.5t98.5 388.5q0 117 -62 187.5t-162 70.5q-217 0 -317 -246q-80 -195 -80 -371zM1008 496l65 -2q180 -6 305 77q57 39 95 101.5t38 118.5q0 90 -114 90 q-147 0 -287 -187q-51 -69 -102 -198z" />
<glyph unicode="&#x2c6;" horiz-adv-x="739" d="M444 1137q10 14 58 71q106 131 184 250h143l91 -313l-50 -19l-143 220l-238 -228z" />
<glyph unicode="&#x2dc;" horiz-adv-x="911" d="M455 1163q125 182 237 183q33 0 94 -39l123 -78q39 -25 64 -25q45 0 106 86l43 -26q-113 -180 -227 -181q-35 0 -98 43l-101 68q-39 27 -71 27q-66 0 -129 -93z" />
<glyph unicode="&#x2000;" horiz-adv-x="896" />
<glyph unicode="&#x2001;" horiz-adv-x="1792" />
<glyph unicode="&#x2002;" horiz-adv-x="896" />
<glyph unicode="&#x2003;" horiz-adv-x="1792" />
<glyph unicode="&#x2004;" horiz-adv-x="597" />
<glyph unicode="&#x2005;" horiz-adv-x="448" />
<glyph unicode="&#x2006;" horiz-adv-x="298" />
<glyph unicode="&#x2007;" horiz-adv-x="298" />
<glyph unicode="&#x2008;" horiz-adv-x="224" />
<glyph unicode="&#x2009;" horiz-adv-x="358" />
<glyph unicode="&#x200a;" horiz-adv-x="99" />
<glyph unicode="&#x2010;" horiz-adv-x="583" d="M147 395v137h410v-137h-410z" />
<glyph unicode="&#x2011;" horiz-adv-x="583" d="M147 395v137h410v-137h-410z" />
<glyph unicode="&#x2012;" horiz-adv-x="583" d="M147 395v137h410v-137h-410z" />
<glyph unicode="&#x2013;" horiz-adv-x="993" d="M147 395v137h820v-137h-820z" />
<glyph unicode="&#x2014;" horiz-adv-x="1402" d="M147 395v137h1229v-137h-1229z" />
<glyph unicode="&#x2018;" horiz-adv-x="329" d="M336 1169q0 86 72.5 181.5t193.5 165.5l21 -27q-137 -117 -138 -215q0 -23 27 -72q14 -27 14 -57q0 -90 -88 -90q-45 0 -73.5 32.5t-28.5 81.5z" />
<glyph unicode="&#x201c;" horiz-adv-x="655" d="M336 1169q0 86 72.5 181.5t193.5 165.5l21 -27q-137 -117 -138 -215q0 -23 27 -72q14 -27 14 -57q0 -90 -88 -90q-45 0 -73.5 32.5t-28.5 81.5zM664 1169q0 86 72.5 181.5t193.5 165.5l20 -27q-137 -117 -137 -215q0 -23 27 -72q14 -27 14 -57q0 -90 -88 -90 q-45 0 -73.5 32.5t-28.5 81.5z" />
<glyph unicode="&#x201d;" horiz-adv-x="724" d="M303 1081q137 117 137 213q0 25 -26 74q-14 27 -15 57q0 90 88 91q45 0 74 -33t29 -82q0 -86 -72.5 -181t-195.5 -165zM631 1081q135 119 135 213q0 29 -25 74q-14 27 -14 57q0 90 88 91q45 0 74 -33t29 -82q0 -86 -73 -181t-196 -165z" />
<glyph unicode="&#x201e;" horiz-adv-x="655" d="M-111 -248q137 115 138 213q0 23 -27 72q-14 27 -14 57q0 90 88 90q45 0 73.5 -32.5t28.5 -81.5q0 -86 -72.5 -180t-195.5 -166zM217 -248q135 115 135 213q0 27 -24 72q-14 27 -15 57q0 90 88 90q45 0 74 -32.5t29 -81.5q0 -86 -72.5 -180t-195.5 -166z" />
<glyph unicode="&#x202f;" horiz-adv-x="358" />
<glyph unicode="&#x2039;" horiz-adv-x="434" d="M92 434l277 397h45l-197 -397l102 -401h-45z" />
<glyph unicode="&#x203a;" horiz-adv-x="434" d="M123 33l196 397l-102 401h45l182 -401l-276 -397h-45z" />
<glyph unicode="&#x205f;" horiz-adv-x="448" />
<glyph unicode="&#x20ac;" horiz-adv-x="1394" d="M164 592l35 61h82q4 25 12 62h-113l35 61h94q70 233 246 391q246 219 545 219q158 0 377 -79l-27 -287h-88q-10 125 -53 190q-78 119 -238 119q-168 0 -323.5 -155.5t-231.5 -397.5h602l-35 -61h-583q-4 -18 -15 -62h564l-33 -61h-539q-4 -31 -4 -82q0 -213 113 -336 q88 -96 250 -96q168 0 317 106l107 80l30 -37q-268 -248 -559 -247q-217 0 -350 161q-115 139 -115 346q0 14 4 105h-106z" />
<glyph unicode="&#x25fc;" horiz-adv-x="931" d="M0 0v932h932v-932h-932z" />
</font>
</defs>
</svg>
